<mxfile host="app.diagrams.net" modified="2020-12-06T20:44:21.098Z" agent="5.0 (X11; Linux x86_64) AppleWebKit/537.36 (KHTML, like Gecko) Chrome/87.0.4280.66 Safari/537.36" etag="_1drVnxrA8prbBgIsMpx" version="13.10.0" type="github">
  <diagram id="R2lEEEUBdFMjLlhIrx00" name="Page-1">
    <mxGraphModel dx="801" dy="433" grid="1" gridSize="10" guides="1" tooltips="1" connect="1" arrows="1" fold="1" page="1" pageScale="1" pageWidth="827" pageHeight="1169" math="0" shadow="0" extFonts="Permanent Marker^https://fonts.googleapis.com/css?family=Permanent+Marker">
      <root>
        <mxCell id="0" />
        <mxCell id="1" parent="0" />
        <mxCell id="qJxD9WSzTfimHS1Nv1Jt-1" value="Ledare" style="whiteSpace=wrap;html=1;align=center;" vertex="1" parent="1">
          <mxGeometry x="10" y="140" width="100" height="40" as="geometry" />
        </mxCell>
        <mxCell id="qJxD9WSzTfimHS1Nv1Jt-2" value="Ansvarar fÃ¶r" style="shape=rhombus;perimeter=rhombusPerimeter;whiteSpace=wrap;html=1;align=center;" vertex="1" parent="1">
          <mxGeometry x="240" y="90" width="120" height="60" as="geometry" />
        </mxCell>
        <mxCell id="qJxD9WSzTfimHS1Nv1Jt-3" value="Leder" style="shape=rhombus;perimeter=rhombusPerimeter;whiteSpace=wrap;html=1;align=center;" vertex="1" parent="1">
          <mxGeometry x="240" y="170" width="120" height="60" as="geometry" />
        </mxCell>
        <mxCell id="qJxD9WSzTfimHS1Nv1Jt-4" value="Aktivitet" style="whiteSpace=wrap;html=1;align=center;" vertex="1" parent="1">
          <mxGeometry x="490" y="140" width="100" height="40" as="geometry" />
        </mxCell>
        <mxCell id="qJxD9WSzTfimHS1Nv1Jt-5" value="Kotte" style="whiteSpace=wrap;html=1;align=center;" vertex="1" parent="1">
          <mxGeometry x="250" y="330" width="100" height="40" as="geometry" />
        </mxCell>
        <mxCell id="qJxD9WSzTfimHS1Nv1Jt-6" value="Deltar" style="shape=rhombus;perimeter=rhombusPerimeter;whiteSpace=wrap;html=1;align=center;" vertex="1" parent="1">
          <mxGeometry x="410" y="250" width="120" height="60" as="geometry" />
        </mxCell>
        <mxCell id="qJxD9WSzTfimHS1Nv1Jt-7" value="Handleder" style="shape=rhombus;perimeter=rhombusPerimeter;whiteSpace=wrap;html=1;align=center;" vertex="1" parent="1">
          <mxGeometry x="70" y="250" width="120" height="60" as="geometry" />
        </mxCell>
      </root>
    </mxGraphModel>
  </diagram>
</mxfile>
